# xmcd CD database file
#
# Track frame offsets:
#	150
#	1012
#	48324
#	97635
#	145875
#	207315
#
# Disc length: 2800 seconds
#
# Revision: 1
# Processed by: cddbd v1.5.1PL0 Copyright (c) Steve Scherf et al.
# Submitted via: CDex 1.51
#
DISCID=3f0aee06
DTITLE=Miles Davis - High Energy(bootleg,7/17/70)
DYEAR=1970
DGENRE=Jazz
TTITLE0=Introduction by Bill Graham
TTITLE1=Directions
TTITLE2=The Mask
TTITLE3=It's about that time
TTITLE4=Bitches brew
TTITLE5=The Theme
EXTD=YEAR: 1970
EXTT0=
EXTT1=
EXTT2=
EXTT3=
EXTT4=
EXTT5=
PLAYORDER=
